<?xml version="1.0" encoding="iso-8859-1"?>
<!-- Uploaded to: SVG Repo, www.svgrepo.com, Generator: SVG Repo Mixer Tools -->
<svg fill="#000000" height="800px" width="800px" version="1.1" id="Layer_1" xmlns="http://www.w3.org/2000/svg" xmlns:xlink="http://www.w3.org/1999/xlink" 
	 viewBox="0 0 512 512" xml:space="preserve">
<g>
	<g>
		<g>
			<path d="M304.823,203.129c0-72.645-59.101-131.746-131.746-131.746S41.332,130.485,41.332,203.129
				s59.101,131.746,131.746,131.746S304.823,275.774,304.823,203.129z M61.998,203.129c0-61.25,49.83-111.08,111.08-111.08
				s111.08,49.83,111.08,111.08s-49.83,111.08-111.08,111.08S61.998,264.379,61.998,203.129z"/>
			<path d="M245.712,256.921c3.402-4.583,2.444-11.054-2.138-14.456c-4.583-3.402-11.054-2.444-14.456,2.138
				c-13.142,17.705-34.091,28.274-56.04,28.274c-5.707,0-10.333,4.626-10.333,10.333s4.626,10.333,10.333,10.333
				C201.537,293.543,228.691,279.853,245.712,256.921z"/>
			<path d="M252.711,216.514c0.132,0.005,0.265,0.007,0.397,0.007c5.526,0,10.108-4.373,10.319-9.943
				c0.043-1.145,0.065-2.294,0.065-3.449c0-5.707-4.626-10.333-10.333-10.333s-10.333,4.626-10.333,10.333
				c0,0.894-0.017,1.784-0.05,2.669C242.56,211.501,247.008,216.299,252.711,216.514z"/>
			<path d="M400.92,196.413c-21.367,0-38.749,17.382-38.749,38.749c0,17.788,12.051,32.804,28.416,37.338v125.062
				c0,25.449-20.704,46.154-46.154,46.154h-119.69v-23.766h24.972c16.143,0,29.276-13.133,29.276-29.276v-50.755
				c40.834-31.689,67.164-81.219,67.164-136.789c0-95.436-77.642-173.078-173.078-173.078S0,107.694,0,203.129
				c0,55.57,26.331,105.1,67.164,136.789v50.755c0,16.143,13.133,29.276,29.276,29.276h24.972v51.665
				c0,5.707,4.626,10.333,10.333,10.333h82.664c5.707,0,10.333-4.626,10.333-10.333v-7.233h119.69
				c36.844,0,66.82-29.975,66.82-66.82v-125.06c16.364-4.534,28.416-19.551,28.416-37.338
				C439.669,213.796,422.287,196.413,400.92,196.413z M20.666,203.129c0-84.04,68.371-152.412,152.412-152.412
				s152.412,68.372,152.412,152.412s-68.371,152.412-152.412,152.412S20.666,287.169,20.666,203.129z M204.077,461.283h-61.998
				v-41.332h61.998V461.283z M96.441,399.284c-4.748,0.001-8.611-3.862-8.611-8.611v-36.962
				c25.179,14.31,54.274,22.496,85.247,22.496s60.068-8.186,85.247-22.496v36.962c0,4.748-3.862,8.611-8.611,8.611H96.441z
				 M400.92,253.244c-9.97,0-18.083-8.112-18.083-18.083s8.112-18.083,18.083-18.083s18.083,8.112,18.083,18.083
				S410.891,253.244,400.92,253.244z"/>
			<path d="M501.667,224.828h-30.999c-5.707,0-10.333,4.626-10.333,10.333s4.626,10.333,10.333,10.333h30.999
				c5.707,0,10.333-4.626,10.333-10.333S507.374,224.828,501.667,224.828z"/>
			<path d="M400.92,175.747c5.707,0,10.333-4.626,10.333-10.333v-30.999c0-5.707-4.626-10.333-10.333-10.333
				s-10.333,4.626-10.333,10.333v30.999C390.587,171.121,395.213,175.747,400.92,175.747z"/>
			<path d="M457.546,277.173c-4.035-4.034-10.578-4.034-14.614,0c-4.035,4.035-4.035,10.578,0,14.614l21.919,21.919
				c2.018,2.018,4.662,3.026,7.306,3.026c2.644,0,5.289-1.008,7.307-3.026c4.035-4.035,4.035-10.578,0-14.614L457.546,277.173z"/>
			<path d="M450.239,196.176c2.644,0,5.289-1.01,7.306-3.027l21.919-21.919c4.035-4.035,4.035-10.578,0-14.614
				c-4.035-4.035-10.578-4.035-14.614,0l-21.919,21.919c-4.035,4.035-4.035,10.578,0,14.614
				C444.95,195.167,447.594,196.176,450.239,196.176z"/>
			<path d="M216.993,203.129c0-24.215-19.7-43.915-43.915-43.915s-43.915,19.7-43.915,43.915s19.7,43.915,43.915,43.915
				S216.993,227.345,216.993,203.129z M149.828,203.129c0-12.82,10.429-23.249,23.249-23.249s23.249,10.429,23.249,23.249
				s-10.429,23.249-23.249,23.249S149.828,215.949,149.828,203.129z"/>
		</g>
	</g>
</g>
</svg>